# xmcd CD database file
#
# Track frame offsets:
#	150
#	17120
#	37057
#	54162
#	69602
#	86382
#	102462
#	118450
#	134530
#	150980
#	165962
#	180545
#	200775
#	213390
#	231317
#	249137
#	272340
#	287115
#
# Disc length: 4030 seconds
#
# Revision: 0
# Processed by: cddbd v1.4PL0 Copyright (c) Steve Scherf et al.
# Submitted via: CDex 1.50beta8
#
DISCID=fc0fbc12
DTITLE=John Bunch - Solo (Arbors Piano Series at Mike's Place, Vol. 1)
DYEAR=1997
DGENRE=Jazz
TTITLE0=Keepin' Out of Mischief Now
TTITLE1=Something to Live For
TTITLE2=Ain't Misbehaving
TTITLE3=I Gotta a Right to Sing the Blues
TTITLE4=Doxy
TTITLE5=Body and Soul
TTITLE6=Isn't This a Lovely Day?
TTITLE7=I've Got a Crush on You
TTITLE8=Honeysuckle Rose
TTITLE9=Isfahan
TTITLE10=Lucky To Be Me
TTITLE11=Bess, You Is My Woman Now
TTITLE12=We Take The Cake
TTITLE13=The Boy Next Door
TTITLE14=Sugar
TTITLE15=The Duke
TTITLE16=Sweet Lorraine
TTITLE17=John's Bunch
EXTD=YEAR: 1997
EXTT0=
EXTT1=
EXTT2=
EXTT3=
EXTT4=
EXTT5=
EXTT6=
EXTT7=
EXTT8=
EXTT9=
EXTT10=
EXTT11=
EXTT12=
EXTT13=
EXTT14=
EXTT15=
EXTT16=
EXTT17=
PLAYORDER=
